<mxfile host="app.diagrams.net" agent="Mozilla/5.0 (X11; Ubuntu; Linux x86_64; rv:129.0) Gecko/20100101 Firefox/129.0" version="24.8.6">
  <diagram id="R2lEEEUBdFMjLlhIrx00" name="Page-1">
    <mxGraphModel dx="1137" dy="663" grid="1" gridSize="10" guides="1" tooltips="1" connect="1" arrows="1" fold="1" page="1" pageScale="1" pageWidth="1100" pageHeight="850" math="0" shadow="0" extFonts="Permanent Marker^https://fonts.googleapis.com/css?family=Permanent+Marker">
      <root>
        <mxCell id="0" />
        <mxCell id="1" parent="0" />
        <mxCell id="Ggqdh9_-7A-ZIkTWF8em-8" value="Produit" style="swimlane;fontStyle=0;childLayout=stackLayout;horizontal=1;startSize=30;horizontalStack=0;resizeParent=1;resizeParentMax=0;resizeLast=0;collapsible=1;marginBottom=0;whiteSpace=wrap;html=1;" parent="1" vertex="1">
          <mxGeometry x="615" y="224.75" width="140" height="150" as="geometry">
            <mxRectangle x="485" y="120" width="80" height="30" as="alternateBounds" />
          </mxGeometry>
        </mxCell>
        <mxCell id="Ggqdh9_-7A-ZIkTWF8em-9" value="&lt;u&gt;IdProduit&lt;/u&gt;" style="text;strokeColor=none;fillColor=none;align=left;verticalAlign=middle;spacingLeft=4;spacingRight=4;overflow=hidden;points=[[0,0.5],[1,0.5]];portConstraint=eastwest;rotatable=0;whiteSpace=wrap;html=1;" parent="Ggqdh9_-7A-ZIkTWF8em-8" vertex="1">
          <mxGeometry y="30" width="140" height="30" as="geometry" />
        </mxCell>
        <mxCell id="Ggqdh9_-7A-ZIkTWF8em-10" value="NomProduit" style="text;strokeColor=none;fillColor=none;align=left;verticalAlign=middle;spacingLeft=4;spacingRight=4;overflow=hidden;points=[[0,0.5],[1,0.5]];portConstraint=eastwest;rotatable=0;whiteSpace=wrap;html=1;" parent="Ggqdh9_-7A-ZIkTWF8em-8" vertex="1">
          <mxGeometry y="60" width="140" height="30" as="geometry" />
        </mxCell>
        <mxCell id="Ggqdh9_-7A-ZIkTWF8em-11" value="PrixRevient" style="text;strokeColor=none;fillColor=none;align=left;verticalAlign=middle;spacingLeft=4;spacingRight=4;overflow=hidden;points=[[0,0.5],[1,0.5]];portConstraint=eastwest;rotatable=0;whiteSpace=wrap;html=1;" parent="Ggqdh9_-7A-ZIkTWF8em-8" vertex="1">
          <mxGeometry y="90" width="140" height="30" as="geometry" />
        </mxCell>
        <mxCell id="Ggqdh9_-7A-ZIkTWF8em-18" value="Stock" style="text;strokeColor=none;fillColor=none;align=left;verticalAlign=middle;spacingLeft=4;spacingRight=4;overflow=hidden;points=[[0,0.5],[1,0.5]];portConstraint=eastwest;rotatable=0;whiteSpace=wrap;html=1;" parent="Ggqdh9_-7A-ZIkTWF8em-8" vertex="1">
          <mxGeometry y="120" width="140" height="30" as="geometry" />
        </mxCell>
        <mxCell id="ZjdiVJFrD4wn3T4_e016-46" style="edgeStyle=orthogonalEdgeStyle;rounded=0;orthogonalLoop=1;jettySize=auto;html=1;exitX=1;exitY=0.25;exitDx=0;exitDy=0;endArrow=none;endFill=0;" parent="1" source="FZLIJTJYXw8WMC6VIrll-7" edge="1">
          <mxGeometry relative="1" as="geometry">
            <mxPoint x="280" y="420" as="targetPoint" />
          </mxGeometry>
        </mxCell>
        <mxCell id="FZLIJTJYXw8WMC6VIrll-7" value="Vente Limitee" style="swimlane;fontStyle=0;childLayout=stackLayout;horizontal=1;startSize=30;horizontalStack=0;resizeParent=1;resizeParentMax=0;resizeLast=0;collapsible=1;marginBottom=0;whiteSpace=wrap;html=1;" parent="1" vertex="1">
          <mxGeometry x="60" y="479" width="140" height="90" as="geometry" />
        </mxCell>
        <mxCell id="Ggqdh9_-7A-ZIkTWF8em-62" value="Debut" style="text;strokeColor=none;fillColor=none;align=left;verticalAlign=middle;spacingLeft=4;spacingRight=4;overflow=hidden;points=[[0,0.5],[1,0.5]];portConstraint=eastwest;rotatable=0;whiteSpace=wrap;html=1;" parent="FZLIJTJYXw8WMC6VIrll-7" vertex="1">
          <mxGeometry y="30" width="140" height="30" as="geometry" />
        </mxCell>
        <mxCell id="FZLIJTJYXw8WMC6VIrll-8" value="Fin" style="text;strokeColor=none;fillColor=none;align=left;verticalAlign=middle;spacingLeft=4;spacingRight=4;overflow=hidden;points=[[0,0.5],[1,0.5]];portConstraint=eastwest;rotatable=0;whiteSpace=wrap;html=1;" parent="FZLIJTJYXw8WMC6VIrll-7" vertex="1">
          <mxGeometry y="60" width="140" height="30" as="geometry" />
        </mxCell>
        <mxCell id="FZLIJTJYXw8WMC6VIrll-11" value="Vente Libre" style="swimlane;fontStyle=0;childLayout=stackLayout;horizontal=1;startSize=30;horizontalStack=0;resizeParent=1;resizeParentMax=0;resizeLast=0;collapsible=1;marginBottom=0;whiteSpace=wrap;html=1;" parent="1" vertex="1">
          <mxGeometry x="60" y="401" width="140" height="60" as="geometry" />
        </mxCell>
        <mxCell id="Ggqdh9_-7A-ZIkTWF8em-53" style="edgeStyle=orthogonalEdgeStyle;rounded=0;orthogonalLoop=1;jettySize=auto;html=1;exitX=0.5;exitY=0;exitDx=0;exitDy=0;entryX=0.5;entryY=1;entryDx=0;entryDy=0;endArrow=none;endFill=0;" parent="1" source="FZLIJTJYXw8WMC6VIrll-20" target="FZLIJTJYXw8WMC6VIrll-25" edge="1">
          <mxGeometry relative="1" as="geometry" />
        </mxCell>
        <mxCell id="FZLIJTJYXw8WMC6VIrll-20" value="Vente" style="swimlane;fontStyle=0;childLayout=stackLayout;horizontal=1;startSize=30;horizontalStack=0;resizeParent=1;resizeParentMax=0;resizeLast=0;collapsible=1;marginBottom=0;whiteSpace=wrap;html=1;" parent="1" vertex="1">
          <mxGeometry x="320" y="400" width="140" height="180" as="geometry" />
        </mxCell>
        <mxCell id="FZLIJTJYXw8WMC6VIrll-21" value="&lt;u&gt;IdVente&lt;/u&gt;" style="text;strokeColor=none;fillColor=none;align=left;verticalAlign=middle;spacingLeft=4;spacingRight=4;overflow=hidden;points=[[0,0.5],[1,0.5]];portConstraint=eastwest;rotatable=0;whiteSpace=wrap;html=1;" parent="FZLIJTJYXw8WMC6VIrll-20" vertex="1">
          <mxGeometry y="30" width="140" height="30" as="geometry" />
        </mxCell>
        <mxCell id="Ggqdh9_-7A-ZIkTWF8em-63" value="PrixDepart" style="text;strokeColor=none;fillColor=none;align=left;verticalAlign=middle;spacingLeft=4;spacingRight=4;overflow=hidden;points=[[0,0.5],[1,0.5]];portConstraint=eastwest;rotatable=0;whiteSpace=wrap;html=1;" parent="FZLIJTJYXw8WMC6VIrll-20" vertex="1">
          <mxGeometry y="60" width="140" height="30" as="geometry" />
        </mxCell>
        <mxCell id="ZjdiVJFrD4wn3T4_e016-25" value="Sens" style="text;strokeColor=none;fillColor=none;align=left;verticalAlign=middle;spacingLeft=4;spacingRight=4;overflow=hidden;points=[[0,0.5],[1,0.5]];portConstraint=eastwest;rotatable=0;whiteSpace=wrap;html=1;" parent="FZLIJTJYXw8WMC6VIrll-20" vertex="1">
          <mxGeometry y="90" width="140" height="30" as="geometry" />
        </mxCell>
        <mxCell id="ZjdiVJFrD4wn3T4_e016-27" value="Revocabilite" style="text;strokeColor=none;fillColor=none;align=left;verticalAlign=middle;spacingLeft=4;spacingRight=4;overflow=hidden;points=[[0,0.5],[1,0.5]];portConstraint=eastwest;rotatable=0;whiteSpace=wrap;html=1;" parent="FZLIJTJYXw8WMC6VIrll-20" vertex="1">
          <mxGeometry y="120" width="140" height="30" as="geometry" />
        </mxCell>
        <mxCell id="ZjdiVJFrD4wn3T4_e016-26" value="NbOffres" style="text;strokeColor=none;fillColor=none;align=left;verticalAlign=middle;spacingLeft=4;spacingRight=4;overflow=hidden;points=[[0,0.5],[1,0.5]];portConstraint=eastwest;rotatable=0;whiteSpace=wrap;html=1;" parent="FZLIJTJYXw8WMC6VIrll-20" vertex="1">
          <mxGeometry y="150" width="140" height="30" as="geometry" />
        </mxCell>
        <mxCell id="Ggqdh9_-7A-ZIkTWF8em-52" style="edgeStyle=orthogonalEdgeStyle;rounded=0;orthogonalLoop=1;jettySize=auto;html=1;exitX=0.5;exitY=0;exitDx=0;exitDy=0;endArrow=diamond;endFill=1;strokeWidth=1;endSize=13;entryX=0.5;entryY=0;entryDx=0;entryDy=0;" parent="1" source="FZLIJTJYXw8WMC6VIrll-25" target="FZLIJTJYXw8WMC6VIrll-25" edge="1">
          <mxGeometry relative="1" as="geometry" />
        </mxCell>
        <mxCell id="FZLIJTJYXw8WMC6VIrll-25" value="Salle de Vente" style="swimlane;fontStyle=0;childLayout=stackLayout;horizontal=1;startSize=30;horizontalStack=0;resizeParent=1;resizeParentMax=0;resizeLast=0;collapsible=1;marginBottom=0;whiteSpace=wrap;html=1;" parent="1" vertex="1">
          <mxGeometry x="320" y="280" width="140" height="60" as="geometry" />
        </mxCell>
        <mxCell id="FZLIJTJYXw8WMC6VIrll-26" value="&lt;u&gt;IdSalle&lt;/u&gt;" style="text;strokeColor=none;fillColor=none;align=left;verticalAlign=middle;spacingLeft=4;spacingRight=4;overflow=hidden;points=[[0,0.5],[1,0.5]];portConstraint=eastwest;rotatable=0;whiteSpace=wrap;html=1;" parent="FZLIJTJYXw8WMC6VIrll-25" vertex="1">
          <mxGeometry y="30" width="140" height="30" as="geometry" />
        </mxCell>
        <mxCell id="Ke0XYD_HMKUoC5TSIvPC-9" style="edgeStyle=orthogonalEdgeStyle;rounded=0;orthogonalLoop=1;jettySize=auto;html=1;exitX=1;exitY=0.25;exitDx=0;exitDy=0;entryX=0.5;entryY=1;entryDx=0;entryDy=0;endArrow=none;endFill=0;" edge="1" parent="1" source="Ggqdh9_-7A-ZIkTWF8em-24" target="Ke0XYD_HMKUoC5TSIvPC-2">
          <mxGeometry relative="1" as="geometry" />
        </mxCell>
        <mxCell id="Ggqdh9_-7A-ZIkTWF8em-24" value="Utilisateur" style="swimlane;fontStyle=0;childLayout=stackLayout;horizontal=1;startSize=30;horizontalStack=0;resizeParent=1;resizeParentMax=0;resizeLast=0;collapsible=1;marginBottom=0;whiteSpace=wrap;html=1;" parent="1" vertex="1">
          <mxGeometry x="328" y="610" width="140" height="150" as="geometry">
            <mxRectangle x="580" y="170" width="80" height="30" as="alternateBounds" />
          </mxGeometry>
        </mxCell>
        <mxCell id="Ggqdh9_-7A-ZIkTWF8em-25" value="&lt;u&gt;EmailUtilisateur&lt;/u&gt;" style="text;strokeColor=none;fillColor=none;align=left;verticalAlign=middle;spacingLeft=4;spacingRight=4;overflow=hidden;points=[[0,0.5],[1,0.5]];portConstraint=eastwest;rotatable=0;whiteSpace=wrap;html=1;" parent="Ggqdh9_-7A-ZIkTWF8em-24" vertex="1">
          <mxGeometry y="30" width="140" height="30" as="geometry" />
        </mxCell>
        <mxCell id="Ggqdh9_-7A-ZIkTWF8em-26" value="Nom" style="text;strokeColor=none;fillColor=none;align=left;verticalAlign=middle;spacingLeft=4;spacingRight=4;overflow=hidden;points=[[0,0.5],[1,0.5]];portConstraint=eastwest;rotatable=0;whiteSpace=wrap;html=1;" parent="Ggqdh9_-7A-ZIkTWF8em-24" vertex="1">
          <mxGeometry y="60" width="140" height="30" as="geometry" />
        </mxCell>
        <mxCell id="Ggqdh9_-7A-ZIkTWF8em-27" value="Prenom" style="text;strokeColor=none;fillColor=none;align=left;verticalAlign=middle;spacingLeft=4;spacingRight=4;overflow=hidden;points=[[0,0.5],[1,0.5]];portConstraint=eastwest;rotatable=0;whiteSpace=wrap;html=1;" parent="Ggqdh9_-7A-ZIkTWF8em-24" vertex="1">
          <mxGeometry y="90" width="140" height="30" as="geometry" />
        </mxCell>
        <mxCell id="Ggqdh9_-7A-ZIkTWF8em-29" value="AdressePostal" style="text;strokeColor=none;fillColor=none;align=left;verticalAlign=middle;spacingLeft=4;spacingRight=4;overflow=hidden;points=[[0,0.5],[1,0.5]];portConstraint=eastwest;rotatable=0;whiteSpace=wrap;html=1;" parent="Ggqdh9_-7A-ZIkTWF8em-24" vertex="1">
          <mxGeometry y="120" width="140" height="30" as="geometry" />
        </mxCell>
        <mxCell id="Ggqdh9_-7A-ZIkTWF8em-19" value="&lt;div&gt;Caractéristique&lt;/div&gt;" style="swimlane;fontStyle=0;childLayout=stackLayout;horizontal=1;startSize=30;horizontalStack=0;resizeParent=1;resizeParentMax=0;resizeLast=0;collapsible=1;marginBottom=0;whiteSpace=wrap;html=1;" parent="1" vertex="1">
          <mxGeometry x="930" y="200" width="140" height="60" as="geometry">
            <mxRectangle x="580" y="170" width="80" height="30" as="alternateBounds" />
          </mxGeometry>
        </mxCell>
        <mxCell id="Ggqdh9_-7A-ZIkTWF8em-20" value="&lt;u&gt;NomCaracteristique&lt;/u&gt;" style="text;strokeColor=none;fillColor=none;align=left;verticalAlign=middle;spacingLeft=4;spacingRight=4;overflow=hidden;points=[[0,0.5],[1,0.5]];portConstraint=eastwest;rotatable=0;whiteSpace=wrap;html=1;" parent="Ggqdh9_-7A-ZIkTWF8em-19" vertex="1">
          <mxGeometry y="30" width="140" height="30" as="geometry" />
        </mxCell>
        <mxCell id="FZLIJTJYXw8WMC6VIrll-30" value="&lt;div&gt;{Obligatoire, OU}&lt;/div&gt;" style="text;html=1;align=center;verticalAlign=middle;whiteSpace=wrap;rounded=0;" parent="1" vertex="1">
          <mxGeometry x="210" y="386" width="100" height="30" as="geometry" />
        </mxCell>
        <mxCell id="Ggqdh9_-7A-ZIkTWF8em-36" value="Offre" style="swimlane;fontStyle=0;childLayout=stackLayout;horizontal=1;startSize=30;horizontalStack=0;resizeParent=1;resizeParentMax=0;resizeLast=0;collapsible=1;marginBottom=0;whiteSpace=wrap;html=1;" parent="1" vertex="1">
          <mxGeometry x="630" y="440" width="140" height="90" as="geometry">
            <mxRectangle x="485" y="280" width="80" height="30" as="alternateBounds" />
          </mxGeometry>
        </mxCell>
        <mxCell id="Ggqdh9_-7A-ZIkTWF8em-38" value="PrixAchat" style="text;strokeColor=none;fillColor=none;align=left;verticalAlign=middle;spacingLeft=4;spacingRight=4;overflow=hidden;points=[[0,0.5],[1,0.5]];portConstraint=eastwest;rotatable=0;whiteSpace=wrap;html=1;" parent="Ggqdh9_-7A-ZIkTWF8em-36" vertex="1">
          <mxGeometry y="30" width="140" height="30" as="geometry" />
        </mxCell>
        <mxCell id="Ggqdh9_-7A-ZIkTWF8em-41" value="Quantite" style="text;strokeColor=none;fillColor=none;align=left;verticalAlign=middle;spacingLeft=4;spacingRight=4;overflow=hidden;points=[[0,0.5],[1,0.5]];portConstraint=eastwest;rotatable=0;whiteSpace=wrap;html=1;" parent="Ggqdh9_-7A-ZIkTWF8em-36" vertex="1">
          <mxGeometry y="60" width="140" height="30" as="geometry" />
        </mxCell>
        <mxCell id="Ggqdh9_-7A-ZIkTWF8em-42" value="Catégorie" style="swimlane;fontStyle=0;childLayout=stackLayout;horizontal=1;startSize=30;horizontalStack=0;resizeParent=1;resizeParentMax=0;resizeLast=0;collapsible=1;marginBottom=0;whiteSpace=wrap;html=1;" parent="1" vertex="1">
          <mxGeometry x="60" y="284.75" width="140" height="90" as="geometry" />
        </mxCell>
        <mxCell id="Ggqdh9_-7A-ZIkTWF8em-43" value="&lt;u&gt;NomCatégorie&lt;/u&gt;" style="text;strokeColor=none;fillColor=none;align=left;verticalAlign=middle;spacingLeft=4;spacingRight=4;overflow=hidden;points=[[0,0.5],[1,0.5]];portConstraint=eastwest;rotatable=0;whiteSpace=wrap;html=1;" parent="Ggqdh9_-7A-ZIkTWF8em-42" vertex="1">
          <mxGeometry y="30" width="140" height="30" as="geometry" />
        </mxCell>
        <mxCell id="Ggqdh9_-7A-ZIkTWF8em-44" value="Description" style="text;strokeColor=none;fillColor=none;align=left;verticalAlign=middle;spacingLeft=4;spacingRight=4;overflow=hidden;points=[[0,0.5],[1,0.5]];portConstraint=eastwest;rotatable=0;whiteSpace=wrap;html=1;" parent="Ggqdh9_-7A-ZIkTWF8em-42" vertex="1">
          <mxGeometry y="60" width="140" height="30" as="geometry" />
        </mxCell>
        <mxCell id="Ggqdh9_-7A-ZIkTWF8em-50" style="edgeStyle=orthogonalEdgeStyle;rounded=0;orthogonalLoop=1;jettySize=auto;html=1;exitX=0;exitY=0.25;exitDx=0;exitDy=0;entryX=0.986;entryY=0.167;entryDx=0;entryDy=0;entryPerimeter=0;endArrow=none;endFill=0;" parent="1" source="FZLIJTJYXw8WMC6VIrll-25" target="Ggqdh9_-7A-ZIkTWF8em-42" edge="1">
          <mxGeometry relative="1" as="geometry">
            <Array as="points">
              <mxPoint x="320" y="300" />
            </Array>
          </mxGeometry>
        </mxCell>
        <mxCell id="Ke0XYD_HMKUoC5TSIvPC-23" value="catégorise" style="edgeLabel;html=1;align=center;verticalAlign=middle;resizable=0;points=[];" vertex="1" connectable="0" parent="Ggqdh9_-7A-ZIkTWF8em-50">
          <mxGeometry x="0.1013" y="-1" relative="1" as="geometry">
            <mxPoint as="offset" />
          </mxGeometry>
        </mxCell>
        <mxCell id="ZjdiVJFrD4wn3T4_e016-6" value="1" style="text;html=1;align=center;verticalAlign=middle;resizable=0;points=[];autosize=1;strokeColor=none;fillColor=none;" parent="1" vertex="1">
          <mxGeometry x="200" y="275" width="30" height="30" as="geometry" />
        </mxCell>
        <mxCell id="ZjdiVJFrD4wn3T4_e016-7" value="0...n" style="text;html=1;align=center;verticalAlign=middle;resizable=0;points=[];autosize=1;strokeColor=none;fillColor=none;" parent="1" vertex="1">
          <mxGeometry x="278" y="276" width="50" height="30" as="geometry" />
        </mxCell>
        <mxCell id="ZjdiVJFrD4wn3T4_e016-10" value="1...n" style="text;html=1;align=center;verticalAlign=middle;resizable=0;points=[];autosize=1;strokeColor=none;fillColor=none;" parent="1" vertex="1">
          <mxGeometry x="565" y="250" width="50" height="30" as="geometry" />
        </mxCell>
        <mxCell id="ZjdiVJFrD4wn3T4_e016-11" value="1" style="text;html=1;align=center;verticalAlign=middle;resizable=0;points=[];autosize=1;strokeColor=none;fillColor=none;" parent="1" vertex="1">
          <mxGeometry x="383" y="337" width="30" height="30" as="geometry" />
        </mxCell>
        <mxCell id="ZjdiVJFrD4wn3T4_e016-12" value="1...n" style="text;html=1;align=center;verticalAlign=middle;resizable=0;points=[];autosize=1;strokeColor=none;fillColor=none;" parent="1" vertex="1">
          <mxGeometry x="381" y="378" width="50" height="30" as="geometry" />
        </mxCell>
        <mxCell id="ZjdiVJFrD4wn3T4_e016-13" value="1" style="text;html=1;align=center;verticalAlign=middle;resizable=0;points=[];autosize=1;strokeColor=none;fillColor=none;" parent="1" vertex="1">
          <mxGeometry x="460" y="394" width="30" height="30" as="geometry" />
        </mxCell>
        <mxCell id="ZjdiVJFrD4wn3T4_e016-15" value="1" style="text;html=1;align=center;verticalAlign=middle;resizable=0;points=[];autosize=1;strokeColor=none;fillColor=none;" parent="1" vertex="1">
          <mxGeometry x="648" y="199" width="30" height="30" as="geometry" />
        </mxCell>
        <mxCell id="ZjdiVJFrD4wn3T4_e016-20" value="" style="swimlane;fontStyle=0;childLayout=stackLayout;horizontal=1;startSize=30;horizontalStack=0;resizeParent=1;resizeParentMax=0;resizeLast=0;collapsible=1;marginBottom=0;whiteSpace=wrap;html=1;" parent="1" vertex="1">
          <mxGeometry x="800" y="400" width="110" height="60" as="geometry">
            <mxRectangle x="580" y="170" width="80" height="30" as="alternateBounds" />
          </mxGeometry>
        </mxCell>
        <mxCell id="ZjdiVJFrD4wn3T4_e016-22" value="Valeur" style="text;strokeColor=none;fillColor=none;align=left;verticalAlign=middle;spacingLeft=4;spacingRight=4;overflow=hidden;points=[[0,0.5],[1,0.5]];portConstraint=eastwest;rotatable=0;whiteSpace=wrap;html=1;" parent="ZjdiVJFrD4wn3T4_e016-20" vertex="1">
          <mxGeometry y="30" width="110" height="30" as="geometry" />
        </mxCell>
        <mxCell id="ZjdiVJFrD4wn3T4_e016-37" style="edgeStyle=orthogonalEdgeStyle;rounded=0;orthogonalLoop=1;jettySize=auto;html=1;exitX=0.98;exitY=0.099;exitDx=0;exitDy=0;entryX=0.004;entryY=0.119;entryDx=0;entryDy=0;entryPerimeter=0;exitPerimeter=0;endArrow=none;endFill=0;" parent="1" source="FZLIJTJYXw8WMC6VIrll-20" target="Ggqdh9_-7A-ZIkTWF8em-8" edge="1">
          <mxGeometry relative="1" as="geometry" />
        </mxCell>
        <mxCell id="Ke0XYD_HMKUoC5TSIvPC-10" value="concerne un" style="edgeLabel;html=1;align=center;verticalAlign=middle;resizable=0;points=[];" vertex="1" connectable="0" parent="ZjdiVJFrD4wn3T4_e016-37">
          <mxGeometry x="-0.0161" y="3" relative="1" as="geometry">
            <mxPoint x="1" as="offset" />
          </mxGeometry>
        </mxCell>
        <mxCell id="ZjdiVJFrD4wn3T4_e016-38" style="edgeStyle=orthogonalEdgeStyle;rounded=0;orthogonalLoop=1;jettySize=auto;html=1;exitX=0.25;exitY=0;exitDx=0;exitDy=0;entryX=0.45;entryY=-0.006;entryDx=0;entryDy=0;entryPerimeter=0;endArrow=none;endFill=0;" parent="1" source="Ggqdh9_-7A-ZIkTWF8em-8" target="Ggqdh9_-7A-ZIkTWF8em-42" edge="1">
          <mxGeometry relative="1" as="geometry">
            <Array as="points">
              <mxPoint x="645" y="190" />
              <mxPoint x="183" y="190" />
            </Array>
          </mxGeometry>
        </mxCell>
        <mxCell id="Ke0XYD_HMKUoC5TSIvPC-11" value="est catégorisé par" style="edgeLabel;html=1;align=center;verticalAlign=middle;resizable=0;points=[];" vertex="1" connectable="0" parent="ZjdiVJFrD4wn3T4_e016-38">
          <mxGeometry x="0.0359" y="-3" relative="1" as="geometry">
            <mxPoint as="offset" />
          </mxGeometry>
        </mxCell>
        <mxCell id="ZjdiVJFrD4wn3T4_e016-39" value="" style="rhombus;whiteSpace=wrap;html=1;" parent="1" vertex="1">
          <mxGeometry x="840" y="284.75" width="30" height="30" as="geometry" />
        </mxCell>
        <mxCell id="ZjdiVJFrD4wn3T4_e016-40" style="edgeStyle=orthogonalEdgeStyle;rounded=0;orthogonalLoop=1;jettySize=auto;html=1;exitX=1;exitY=0.5;exitDx=0;exitDy=0;entryX=0;entryY=0.5;entryDx=0;entryDy=0;endArrow=none;endFill=0;" parent="1" source="Ggqdh9_-7A-ZIkTWF8em-10" target="ZjdiVJFrD4wn3T4_e016-39" edge="1">
          <mxGeometry relative="1" as="geometry" />
        </mxCell>
        <mxCell id="ZjdiVJFrD4wn3T4_e016-41" style="edgeStyle=orthogonalEdgeStyle;rounded=0;orthogonalLoop=1;jettySize=auto;html=1;exitX=0;exitY=0.5;exitDx=0;exitDy=0;entryX=0.5;entryY=0;entryDx=0;entryDy=0;endArrow=none;endFill=0;" parent="1" source="Ggqdh9_-7A-ZIkTWF8em-20" target="ZjdiVJFrD4wn3T4_e016-39" edge="1">
          <mxGeometry relative="1" as="geometry" />
        </mxCell>
        <mxCell id="ZjdiVJFrD4wn3T4_e016-42" style="edgeStyle=orthogonalEdgeStyle;rounded=0;orthogonalLoop=1;jettySize=auto;html=1;exitX=0.5;exitY=1;exitDx=0;exitDy=0;endArrow=none;endFill=0;dashed=1;entryX=0.5;entryY=0;entryDx=0;entryDy=0;" parent="1" source="ZjdiVJFrD4wn3T4_e016-39" target="ZjdiVJFrD4wn3T4_e016-20" edge="1">
          <mxGeometry relative="1" as="geometry">
            <Array as="points">
              <mxPoint x="855" y="350" />
              <mxPoint x="855" y="350" />
            </Array>
            <mxPoint x="915" y="380" as="targetPoint" />
          </mxGeometry>
        </mxCell>
        <mxCell id="ZjdiVJFrD4wn3T4_e016-44" style="edgeStyle=orthogonalEdgeStyle;rounded=0;orthogonalLoop=1;jettySize=auto;html=1;exitX=1;exitY=0.25;exitDx=0;exitDy=0;entryX=-0.014;entryY=0.094;entryDx=0;entryDy=0;entryPerimeter=0;endArrow=block;endFill=0;endSize=12;" parent="1" source="FZLIJTJYXw8WMC6VIrll-11" target="FZLIJTJYXw8WMC6VIrll-20" edge="1">
          <mxGeometry relative="1" as="geometry">
            <Array as="points">
              <mxPoint x="255" y="415" />
              <mxPoint x="255" y="417" />
            </Array>
          </mxGeometry>
        </mxCell>
        <mxCell id="ZjdiVJFrD4wn3T4_e016-48" value="1" style="text;html=1;align=center;verticalAlign=middle;resizable=0;points=[];autosize=1;strokeColor=none;fillColor=none;" parent="1" vertex="1">
          <mxGeometry x="120" y="259.5" width="30" height="30" as="geometry" />
        </mxCell>
        <mxCell id="Ke0XYD_HMKUoC5TSIvPC-5" style="edgeStyle=orthogonalEdgeStyle;rounded=0;orthogonalLoop=1;jettySize=auto;html=1;exitX=1;exitY=0.5;exitDx=0;exitDy=0;endArrow=none;endFill=0;" edge="1" parent="1" source="Ke0XYD_HMKUoC5TSIvPC-2" target="Ggqdh9_-7A-ZIkTWF8em-38">
          <mxGeometry relative="1" as="geometry" />
        </mxCell>
        <mxCell id="Ke0XYD_HMKUoC5TSIvPC-2" value="" style="rhombus;whiteSpace=wrap;html=1;" vertex="1" parent="1">
          <mxGeometry x="550" y="470" width="30" height="30" as="geometry" />
        </mxCell>
        <mxCell id="Ke0XYD_HMKUoC5TSIvPC-3" style="edgeStyle=orthogonalEdgeStyle;rounded=0;orthogonalLoop=1;jettySize=auto;html=1;exitX=0.957;exitY=0.9;exitDx=0;exitDy=0;entryX=0;entryY=0.5;entryDx=0;entryDy=0;endArrow=none;endFill=0;exitPerimeter=0;" edge="1" parent="1" source="Ggqdh9_-7A-ZIkTWF8em-63" target="Ke0XYD_HMKUoC5TSIvPC-2">
          <mxGeometry relative="1" as="geometry" />
        </mxCell>
        <mxCell id="Ke0XYD_HMKUoC5TSIvPC-12" value="Caractérisation des produits" style="text;html=1;align=center;verticalAlign=middle;whiteSpace=wrap;rounded=0;" vertex="1" parent="1">
          <mxGeometry x="870" y="289.5" width="100" height="25" as="geometry" />
        </mxCell>
        <mxCell id="Ke0XYD_HMKUoC5TSIvPC-13" value="Proposition d&#39;une offre" style="text;html=1;align=center;verticalAlign=middle;whiteSpace=wrap;rounded=0;" vertex="1" parent="1">
          <mxGeometry x="514" y="442" width="100" height="25" as="geometry" />
        </mxCell>
        <mxCell id="Ke0XYD_HMKUoC5TSIvPC-15" value="0,1" style="text;html=1;align=center;verticalAlign=middle;resizable=0;points=[];autosize=1;strokeColor=none;fillColor=none;" vertex="1" parent="1">
          <mxGeometry x="455" y="461" width="40" height="30" as="geometry" />
        </mxCell>
        <mxCell id="Ke0XYD_HMKUoC5TSIvPC-16" value="1" style="text;html=1;align=center;verticalAlign=middle;resizable=0;points=[];autosize=1;strokeColor=none;fillColor=none;" vertex="1" parent="1">
          <mxGeometry x="604" y="479" width="30" height="30" as="geometry" />
        </mxCell>
        <mxCell id="Ke0XYD_HMKUoC5TSIvPC-17" value="0,1" style="text;html=1;align=center;verticalAlign=middle;resizable=0;points=[];autosize=1;strokeColor=none;fillColor=none;" vertex="1" parent="1">
          <mxGeometry x="463" y="620" width="40" height="30" as="geometry" />
        </mxCell>
        <mxCell id="Ke0XYD_HMKUoC5TSIvPC-18" value="0...n" style="text;html=1;align=center;verticalAlign=middle;resizable=0;points=[];autosize=1;strokeColor=none;fillColor=none;" vertex="1" parent="1">
          <mxGeometry x="749" y="275" width="50" height="30" as="geometry" />
        </mxCell>
        <mxCell id="Ke0XYD_HMKUoC5TSIvPC-19" value="1" style="text;html=1;align=center;verticalAlign=middle;resizable=0;points=[];autosize=1;strokeColor=none;fillColor=none;" vertex="1" parent="1">
          <mxGeometry x="900" y="220" width="30" height="30" as="geometry" />
        </mxCell>
        <mxCell id="Ke0XYD_HMKUoC5TSIvPC-24" value="" style="triangle;whiteSpace=wrap;html=1;fillColor=#030303;fillStyle=solid;strokeColor=none;" vertex="1" parent="1">
          <mxGeometry x="250" y="280" width="10" height="10" as="geometry" />
        </mxCell>
        <mxCell id="Ke0XYD_HMKUoC5TSIvPC-25" value="" style="triangle;whiteSpace=wrap;html=1;fillColor=#030303;fillStyle=solid;strokeColor=none;rotation=-180;" vertex="1" parent="1">
          <mxGeometry x="340" y="170" width="10" height="10" as="geometry" />
        </mxCell>
        <mxCell id="Ke0XYD_HMKUoC5TSIvPC-26" value="" style="triangle;whiteSpace=wrap;html=1;fillColor=#030303;fillStyle=solid;strokeColor=none;rotation=-90;" vertex="1" parent="1">
          <mxGeometry x="520" y="317.25" width="10" height="10" as="geometry" />
        </mxCell>
        <mxCell id="Ke0XYD_HMKUoC5TSIvPC-27" value="Date" style="swimlane;fontStyle=0;childLayout=stackLayout;horizontal=1;startSize=30;horizontalStack=0;resizeParent=1;resizeParentMax=0;resizeLast=0;collapsible=1;marginBottom=0;whiteSpace=wrap;html=1;" vertex="1" parent="1">
          <mxGeometry x="630" y="569" width="140" height="60" as="geometry">
            <mxRectangle x="485" y="280" width="80" height="30" as="alternateBounds" />
          </mxGeometry>
        </mxCell>
        <mxCell id="Ke0XYD_HMKUoC5TSIvPC-28" value="&lt;u&gt;DateHeure&lt;/u&gt;" style="text;strokeColor=none;fillColor=none;align=left;verticalAlign=middle;spacingLeft=4;spacingRight=4;overflow=hidden;points=[[0,0.5],[1,0.5]];portConstraint=eastwest;rotatable=0;whiteSpace=wrap;html=1;" vertex="1" parent="Ke0XYD_HMKUoC5TSIvPC-27">
          <mxGeometry y="30" width="140" height="30" as="geometry" />
        </mxCell>
        <mxCell id="Ke0XYD_HMKUoC5TSIvPC-32" style="edgeStyle=orthogonalEdgeStyle;rounded=0;orthogonalLoop=1;jettySize=auto;html=1;exitX=0;exitY=0.5;exitDx=0;exitDy=0;entryX=0.76;entryY=0.94;entryDx=0;entryDy=0;entryPerimeter=0;endArrow=none;endFill=0;" edge="1" parent="1" source="Ke0XYD_HMKUoC5TSIvPC-28" target="Ke0XYD_HMKUoC5TSIvPC-2">
          <mxGeometry relative="1" as="geometry" />
        </mxCell>
        <mxCell id="Ke0XYD_HMKUoC5TSIvPC-33" value="1" style="text;html=1;align=center;verticalAlign=middle;resizable=0;points=[];autosize=1;strokeColor=none;fillColor=none;" vertex="1" parent="1">
          <mxGeometry x="600" y="584" width="30" height="30" as="geometry" />
        </mxCell>
      </root>
    </mxGraphModel>
  </diagram>
</mxfile>
